# File produced by Open Asset Import Library (http://www.assimp.sf.net)
# (assimp v3.1.187496374)

mtllib road.obj.mtl

# 8 vertex positions
v  2.07745 0.054786 -4.36542
v  -2.08576 0.054786 -4.36542
v  -2.08576 0.054786 4.36542
v  2.07745 0.054786 4.36542
v  2.07745 0.291939 -4.36542
v  2.07744 0.291939 4.36542
v  -2.08576 0.291939 4.36542
v  -2.08576 0.291939 -4.36542

# 15 UV coordinates
vt 0.9213 1 0
vt 0.4606 1 0
vt 0.4606 0 0
vt 0.9213 0 0
vt 0 1 0
vt 0 0 0
vt 0.9475 1 0
vt 0.9475 0 0
vt 0.9738 0 0
vt 0.9738 1 0
vt 0.9738 0.9537 0
vt 0.9738 0.4768 0
vt 1 0.4768 0
vt 1 0.9537 0
vt 1 0 0

# 6 vertex normals
vn 0 1 0
vn 0 -1 0
vn -1 -0 -0
vn 0 0 -1
vn 1 0 0
vn 0 0 1

# Mesh 'road' with 12 faces
g road
usemtl DefaultMaterial
f  1/1/1 2/2/1 3/3/1
f  1/1/1 3/3/1 4/4/1
f  5/5/2 6/6/2 7/3/2
f  5/5/2 7/3/2 8/2/2
f  1/7/3 4/8/3 6/9/3
f  1/7/3 6/9/3 5/10/3
f  4/11/4 3/12/4 7/13/4
f  4/11/4 7/13/4 6/14/4
f  3/8/5 2/7/5 8/1/5
f  3/8/5 8/1/5 7/4/5
f  5/12/6 8/9/6 2/15/6
f  5/12/6 2/15/6 1/13/6

